<svg width="512" height="512" viewBox="0 0 512 512" xmlns="http://www.w3.org/2000/svg">
  <defs>
    
    <linearGradient id="bg" x1="0" y1="0" x2="1" y2="1">
      <stop offset="0%" stop-color="#3EC6F0"/>
      <stop offset="50%" stop-color="#2F80ED"/>
      <stop offset="100%" stop-color="#FF6A3D"/>
    </linearGradient>

   
    <radialGradient id="sun" cx="50%" cy="50%" r="50%">
      <stop offset="0%" stop-color="#FFD84D"/>
      <stop offset="100%" stop-color="#FF9F1C"/>
    </radialGradient>
  </defs>

  
  <rect x="0" y="0" width="512" height="512" rx="110" fill="url(#bg)"/>

  
  <circle cx="380" cy="140" r="70" fill="url(#sun)" />


  <path d="M-40 420 Q 200 330 350 420 T 560 420" fill="#FFFFFF"/>
  <path d="M-40 440 Q 200 350 350 440 T 560 440" fill="#7DE3F4"/>

  
  <rect x="90" y="220" width="330" height="120" rx="30" fill="#FFFFFF"/>

  
  <path d="M120 210 L280 180 Q300 175 320 185 L390 210 Q400 215 395 230 L110 230 Q100 230 105 220 Z" fill="#FFFFFF"/>

 
  <rect x="130" y="245" width="90" height="45" rx="10" fill="#2F80ED"/>
  <rect x="235" y="245" width="60" height="45" rx="10" fill="#2F80ED"/>
  <rect x="305" y="245" width="75" height="45" rx="10" fill="#2F80ED"/>
  <rect x="315" y="300" width="45" height="25" rx="8" fill="#2F80ED"/>
  <rect x="365" y="300" width="45" height="25" rx="8" fill="#2F80ED"/>


  <circle cx="165" cy="350" r="28" fill="#E44848"/>
  <circle cx="335" cy="350" r="28" fill="#E44848"/>
  <circle cx="165" cy="350" r="14" fill="#FFFFFF"/>
  <circle cx="335" cy="350" r="14" fill="#FFFFFF"/>


  <path d="M256 120 C235 120 220 135 220 155 C220 180 256 210 256 210 C256 210 292 180 292 155 C292 135 277 120 256 120 Z" fill="#FFFFFF"/>
  <circle cx="256" cy="155" r="10" fill="#2F80ED"/>
</svg>
